<?xml version="1.0" encoding="iso-8859-1"?>
<!-- Uploaded to: SVG Repo, www.svgrepo.com, Generator: SVG Repo Mixer Tools -->
<svg version="1.1" id="Layer_1" xmlns="http://www.w3.org/2000/svg" xmlns:xlink="http://www.w3.org/1999/xlink" 
	 viewBox="0 0 504.123 504.123" xml:space="preserve">
<circle style="fill:#90DFAA;" cx="252.062" cy="252.062" r="252.062"/>
<circle style="fill:#2C9984;" cx="202.043" cy="202.043" r="107.52"/>
<path style="fill:#FFFFFF;" d="M202.043,289.871c-23.631,0-45.686-9.058-62.228-25.6c-34.265-34.265-34.265-90.191,0-124.455
	c16.542-16.542,38.597-25.6,62.228-25.6s45.686,9.058,62.228,25.6c34.265,34.265,34.265,90.191,0,124.455
	C247.729,280.812,225.674,289.871,202.043,289.871z"/>
<rect x="139.422" y="179.594" style="fill:#84DBFF;" width="29.538" height="63.409"/>
<rect x="187.471" y="199.68" style="fill:#FF7058;" width="29.538" height="43.323"/>
<rect x="235.52" y="161.477" style="fill:#F9B54C;" width="29.538" height="81.526"/>
<path style="fill:#324A5E;" d="M389.908,389.908L389.908,389.908c-10.634,10.634-28.357,10.634-38.991,0l-68.135-68.135
	l38.991-38.991l68.135,68.135C400.935,361.945,400.935,379.274,389.908,389.908z"/>
<path style="fill:#2C9984;" d="M278.449,278.449c-2.757,2.757-5.908,5.514-9.058,7.877l24.418,24.418l16.935-16.935l-24.418-24.418
	C283.963,272.542,281.206,275.298,278.449,278.449z"/>
</svg>